<?xml version="1.0" encoding="UTF-8" standalone="no"?><!DOCTYPE svg PUBLIC "-//W3C//DTD SVG 1.1//EN" "http://www.w3.org/Graphics/SVG/1.1/DTD/svg11.dtd"><svg width="100%" height="100%" viewBox="0 0 83 83" version="1.1" xmlns="http://www.w3.org/2000/svg" xmlns:xlink="http://www.w3.org/1999/xlink" xml:space="preserve" xmlns:serif="http://www.serif.com/" style="fill-rule:evenodd;clip-rule:evenodd;stroke-linejoin:round;stroke-miterlimit:1.41421;"><path d="M69.375,40.833c0,8.613 -2.724,16.084 -8.172,22.412c-4.813,5.654 -11.572,8.628 -20.277,8.921c-1.672,0.058 -6.269,0.087 -13.793,0.087c-1.412,0 -3.538,-0.044 -6.377,-0.131c-2.839,-0.088 -4.965,-0.132 -6.377,-0.132c-0.836,0 -1.254,-0.337 -1.254,-1.011c0,-3.223 0.123,-8.064 0.368,-14.524c0.245,-6.46 0.367,-11.301 0.367,-14.524c0,-3.369 -0.122,-8.415 -0.367,-15.139c-0.245,-6.724 -0.368,-11.755 -0.368,-15.095c0,-0.615 0.418,-0.982 1.254,-1.099c2.046,-0.234 5.404,-0.351 10.074,-0.351c8.878,0 14.628,0.131 17.251,0.395c6.831,0.703 12.178,2.461 16.041,5.274c3.631,2.636 6.499,6.328 8.603,11.074c2.018,4.482 3.027,9.096 3.027,13.843Zm-16.559,0c0,-4.952 -1.456,-8.995 -4.367,-12.129c-2.94,-3.252 -6.831,-4.878 -11.674,-4.878c-4.439,0 -6.658,0.6 -6.658,1.801c0,1.729 -0.029,4.329 -0.087,7.801c-0.057,3.471 -0.086,6.072 -0.086,7.8c0,1.699 0.029,4.255 0.086,7.668c0.058,3.414 0.087,5.984 0.087,7.713c0,1.26 2.306,1.89 6.917,1.89c4.987,0 8.907,-1.685 11.761,-5.054c2.68,-3.194 4.021,-7.398 4.021,-12.612Z" style="fill:#fff;fill-rule:nonzero;"/><rect x="0" y="0" width="82.5" height="82.5" style="fill:url(#_Linear1);"/><path d="M82.5,82.5l-82.5,0l0,-82.5l82.5,0l0,82.5Zm-81.537,-0.962l80.575,0l0,-80.575l-80.575,0l0,80.575Z" style="fill:#fff;"/><g><path d="M82.077,31.185c0.146,-0.68 0.287,-1.368 0.423,-2.066c-0.109,0.717 -0.25,1.405 -0.423,2.066c-10.327,48.283 -43.511,51.2 -62.662,51.142l0,0c-1.875,0.06 -3.846,0.075 -5.915,0.042l5.915,-0.042c47.161,-1.508 34.301,-31.513 23.961,-33.166l0,-0.126c16.515,-1.94 34.947,-3.443 38.701,-17.85Z" style="fill:#c0c0c0;"/><path d="M82.479,29.253l-0.021,0.133l-0.023,0.133l-0.023,0.132l-0.024,0.131l-0.024,0.131l-0.025,0.13l-0.026,0.13l-0.027,0.129l-0.028,0.128l-0.028,0.127l-0.029,0.127l-0.03,0.126l-0.03,0.126l-0.032,0.125l-0.032,0.124l-0.06,0.283l-0.062,0.281l-0.061,0.28l-0.063,0.28l-0.063,0.278l-0.063,0.277l-0.064,0.276l-0.064,0.275l-0.065,0.275l-0.066,0.273l-0.066,0.272l-0.066,0.271l-0.067,0.27l-0.067,0.269l-0.068,0.268l-0.069,0.267l-0.069,0.266l-0.069,0.265l-0.07,0.264l-0.07,0.263l-0.071,0.262l-0.072,0.261l-0.071,0.26l-0.073,0.259l-0.073,0.258l-0.073,0.257l-0.074,0.257l-0.074,0.255l-0.075,0.254l-0.075,0.253l-0.076,0.252l-0.076,0.251l-0.076,0.25l-0.078,0.249l-0.077,0.249l-0.078,0.247l-0.079,0.246l-0.079,0.245l-0.079,0.245l-0.08,0.243l-0.08,0.243l-0.081,0.241l-0.081,0.24l-0.082,0.24l-0.082,0.239l-0.083,0.237l-0.083,0.237l-0.083,0.236l-0.084,0.234l-0.085,0.234l-0.085,0.233l-0.085,0.232l-0.086,0.231l-0.086,0.23l-0.086,0.229l-0.087,0.228l-0.088,0.228l-0.088,0.226l-0.088,0.225l-0.089,0.225l-0.089,0.224l-0.089,0.222l-0.09,0.222l-0.091,0.221l-0.091,0.22l-0.091,0.218l-0.092,0.219l-0.092,0.217l-0.092,0.216l-0.093,0.215l-0.093,0.215l-0.094,0.213l-0.094,0.213l-0.095,0.211l-0.094,0.211l-0.096,0.21l-0.095,0.209l-0.097,0.208l-0.096,0.208l-0.097,0.206l-0.097,0.205l-0.098,0.205l-0.098,0.204l-0.098,0.202l-0.099,0.202l-0.099,0.201l-0.1,0.201l-0.1,0.199l-0.1,0.198l-0.101,0.198l-0.101,0.197l-0.102,0.195l-0.102,0.195l-0.102,0.195l-0.102,0.193l-0.103,0.192l-0.104,0.192l-0.103,0.19l-0.104,0.19l-0.105,0.189l-0.105,0.188l-0.105,0.188l-0.105,0.186l-0.106,0.186l-0.106,0.184l-0.107,0.184l-0.107,0.183l-0.107,0.183l-0.107,0.181l-0.108,0.181l-0.108,0.179l-0.109,0.179l-0.109,0.178l-0.109,0.178l-0.11,0.176l-0.11,0.176l-0.11,0.174l-0.111,0.174l-0.111,0.174l-0.111,0.172l-0.111,0.171l-0.112,0.171l-0.113,0.17l-0.112,0.169l-0.113,0.169l-0.113,0.167l-0.114,0.167l-0.113,0.166l-0.115,0.165l-0.114,0.164l-0.115,0.164l-0.115,0.162l-0.115,0.162l-0.116,0.162l-0.116,0.16l-0.116,0.16l-0.117,0.158l-0.116,0.158l-0.118,0.158l-0.117,0.156l-0.118,0.156l-0.118,0.155l-0.118,0.154l-0.119,0.153l-0.119,0.153l-0.119,0.152l-0.119,0.151l-0.12,0.151l-0.12,0.149l-0.12,0.149l-0.121,0.148l-0.121,0.147l-0.121,0.147l-0.121,0.146l-0.122,0.145l-0.122,0.144l-0.122,0.144l-0.122,0.143l-0.123,0.142l-0.123,0.141l-0.123,0.141l-0.124,0.14l-0.124,0.139l-0.124,0.139l-0.124,0.137l-0.124,0.137l-0.125,0.137l-0.125,0.135l-0.125,0.135l-0.126,0.134l-0.126,0.134l-0.126,0.132l-0.126,0.132l-0.126,0.132l-0.127,0.13l-0.127,0.13l-0.127,0.129l-0.127,0.129l-0.128,0.127l-0.128,0.127l-0.128,0.127l-0.128,0.125l-0.129,0.125l-0.129,0.125l-0.129,0.123l-0.129,0.123l-0.129,0.122l-0.13,0.122l-0.13,0.121l-0.13,0.12l-0.13,0.119l-0.13,0.119l-0.131,0.118l-0.131,0.118l-0.131,0.117l-0.131,0.116l-0.132,0.115l-0.131,0.115l-0.132,0.114l-0.132,0.114l-0.133,0.112l-0.132,0.113l-0.133,0.111l-0.132,0.111l-0.133,0.11l-0.134,0.11l-0.133,0.108l-0.134,0.109l-0.133,0.107l-0.134,0.107l-0.134,0.107l-0.135,0.105l-0.134,0.105l-0.135,0.105l-0.134,0.104l-0.135,0.103l-0.136,0.102l-0.135,0.102l-0.135,0.101l-0.136,0.101l-0.136,0.1l-0.136,0.099l-0.136,0.099l-0.136,0.098l-0.136,0.098l-0.137,0.097l-0.137,0.096l-0.136,0.096l-0.137,0.095l-0.138,0.095l-0.137,0.093l-0.137,0.094l-0.138,0.092l-0.138,0.093l-0.137,0.091l-0.138,0.091l-0.139,0.09l-0.138,0.09l-0.138,0.089l-0.139,0.089l-0.138,0.088l-0.139,0.087l-0.139,0.087l-0.139,0.086l-0.139,0.086l-0.139,0.085l-0.14,0.085l-0.139,0.084l-0.14,0.083l-0.14,0.083l-0.139,0.082l-0.14,0.082l-0.14,0.081l-0.14,0.08l-0.141,0.08l-0.14,0.08l-0.141,0.079l-0.14,0.078l-0.141,0.078l-0.14,0.077l-0.141,0.077l-0.141,0.076l-0.141,0.076l-0.141,0.075l-0.142,0.074l-0.141,0.074l-0.141,0.074l-0.142,0.073l-0.141,0.072l-0.142,0.072l-0.141,0.072l-0.142,0.07l-0.142,0.071l-0.142,0.07l-0.142,0.069l-0.142,0.069l-0.142,0.068l-0.142,0.068l-0.143,0.067l-0.142,0.066l-0.142,0.067l-0.143,0.065l-0.142,0.066l-0.143,0.064l-0.142,0.064l-0.143,0.064l-0.143,0.063l-0.143,0.063l-0.142,0.062l-0.143,0.062l-0.143,0.061l-0.143,0.061l-0.143,0.06l-0.143,0.06l-0.143,0.059l-0.143,0.059l-0.143,0.058l-0.144,0.058l-0.143,0.058l-0.143,0.057l-0.143,0.056l-0.144,0.056l-0.143,0.056l-0.143,0.055l-0.144,0.054l-0.143,0.054l-0.143,0.054l-0.144,0.053l-0.143,0.053l-0.144,0.052l-0.143,0.052l-0.143,0.051l-0.144,0.051l-0.143,0.051l-0.144,0.05l-0.143,0.05l-0.144,0.049l-0.143,0.049l-0.144,0.048l-0.143,0.048l-0.144,0.047l-0.143,0.047l-0.144,0.047l-0.143,0.046l-0.144,0.046l-0.143,0.045l-0.144,0.045l-0.143,0.044l-0.143,0.044l-0.144,0.044l-0.143,0.043l-0.143,0.043l-0.144,0.043l-0.143,0.042l-0.143,0.041l-0.143,0.041l-0.144,0.041l-0.143,0.041l-0.143,0.04l-0.143,0.039l-0.143,0.039l-0.143,0.039l-0.143,0.039l-0.143,0.038l-0.143,0.037l-0.143,0.038l-0.142,0.036l-0.143,0.037l-0.143,0.036l-0.142,0.036l-0.143,0.035l-0.143,0.035l-0.142,0.035l-0.142,0.034l-0.143,0.034l-0.142,0.033l-0.142,0.034l-0.142,0.032l-0.142,0.033l-0.142,0.032l-0.142,0.032l-0.142,0.031l-0.142,0.031l-0.142,0.031l-0.141,0.03l-0.142,0.03l-0.142,0.03l-0.141,0.029l-0.141,0.029l-0.142,0.029l-0.141,0.028l-0.141,0.028l-0.141,0.027l-0.141,0.028l-0.14,0.027l-0.141,0.026l-0.141,0.026l-0.14,0.026l-0.141,0.026l-0.14,0.025l-0.14,0.025l-0.14,0.025l-0.14,0.024l-0.14,0.024l-0.14,0.024l-0.139,0.024l-0.14,0.023l-0.139,0.023l-0.279,0.044l-0.278,0.044l-0.277,0.042l-0.277,0.041l-0.277,0.04l-0.276,0.039l-0.275,0.038l-0.275,0.037l-0.274,0.035l-0.274,0.035l-0.273,0.033l-0.273,0.033l-0.271,0.031l-0.272,0.031l-0.27,0.029l-0.27,0.028l-0.269,0.028l-0.269,0.026l-0.268,0.026l-0.267,0.024l-0.266,0.024l-0.266,0.023l-0.265,0.022l-0.264,0.021l-0.263,0.02l-0.263,0.019l-0.261,0.019l-0.261,0.018l-0.26,0.017l-0.26,0.016l-0.258,0.015l-0.257,0.015l-0.257,0.014l-0.256,0.013l-0.254,0.013l-0.254,0.011l-0.253,0.012l-0.252,0.01l-0.251,0.01l-0.25,0.009l-0.249,0.009l-0.248,0.008l-0.247,0.008l-0.246,0.007l-0.245,0.006l-0.244,0.006l-0.242,0.005l-0.242,0.005l-0.241,0.005l-0.239,0.004l-0.238,0.003l-0.238,0.003l-0.236,0.003l-0.234,0.002l-0.234,0.002l-0.233,0.001l-0.231,0.001l-0.23,0.001l-0.229,0l-0.227,0l-0.227,0l-0.225,-0.001l0,0l-0.176,0.006l-0.177,0.005l-0.177,0.005l-0.178,0.005l-0.357,0.008l-0.359,0.008l-0.362,0.006l-0.364,0.006l-0.366,0.004l-0.369,0.003l-0.371,0.002l-0.373,0.001l-0.375,0l-0.378,-0.001l-0.379,-0.002l-0.383,-0.004l-0.384,-0.005l-0.387,-0.005l5.915,-0.042l0.276,-0.009l0.274,-0.01l0.273,-0.01l0.272,-0.011l0.27,-0.012l0.269,-0.012l0.267,-0.013l0.266,-0.014l0.265,-0.014l0.263,-0.015l0.262,-0.016l0.261,-0.016l0.259,-0.017l0.258,-0.017l0.257,-0.018l0.256,-0.019l0.254,-0.019l0.252,-0.02l0.252,-0.02l0.25,-0.021l0.249,-0.022l0.247,-0.022l0.246,-0.023l0.245,-0.024l0.243,-0.024l0.243,-0.024l0.241,-0.026l0.239,-0.025l0.238,-0.027l0.237,-0.027l0.236,-0.027l0.235,-0.029l0.233,-0.028l0.232,-0.029l0.23,-0.03l0.23,-0.031l0.228,-0.031l0.226,-0.031l0.226,-0.032l0.224,-0.033l0.223,-0.033l0.222,-0.034l0.22,-0.034l0.22,-0.035l0.218,-0.035l0.216,-0.036l0.216,-0.036l0.214,-0.037l0.213,-0.038l0.212,-0.038l0.21,-0.038l0.21,-0.04l0.208,-0.039l0.206,-0.04l0.206,-0.041l0.204,-0.041l0.204,-0.042l0.202,-0.042l0.2,-0.042l0.2,-0.043l0.198,-0.044l0.197,-0.044l0.196,-0.045l0.195,-0.045l0.194,-0.046l0.192,-0.046l0.191,-0.046l0.19,-0.047l0.189,-0.048l0.187,-0.048l0.187,-0.049l0.185,-0.049l0.184,-0.049l0.183,-0.05l0.182,-0.05l0.18,-0.051l0.18,-0.051l0.178,-0.052l0.177,-0.052l0.176,-0.053l0.175,-0.053l0.174,-0.054l0.172,-0.054l0.172,-0.054l0.17,-0.055l0.169,-0.055l0.168,-0.056l0.167,-0.056l0.165,-0.057l0.165,-0.057l0.163,-0.057l0.163,-0.058l0.161,-0.059l0.16,-0.058l0.159,-0.059l0.158,-0.06l0.157,-0.06l0.155,-0.06l0.155,-0.061l0.153,-0.061l0.153,-0.062l0.151,-0.062l0.15,-0.062l0.149,-0.063l0.149,-0.063l0.146,-0.063l0.146,-0.064l0.145,-0.065l0.144,-0.064l0.143,-0.065l0.141,-0.066l0.141,-0.065l0.139,-0.067l0.139,-0.066l0.137,-0.067l0.136,-0.067l0.136,-0.068l0.134,-0.068l0.133,-0.068l0.132,-0.069l0.131,-0.069l0.13,-0.069l0.129,-0.07l0.128,-0.07l0.127,-0.07l0.126,-0.071l0.125,-0.071l0.124,-0.071l0.123,-0.072l0.122,-0.072l0.121,-0.072l0.119,-0.073l0.119,-0.072l0.118,-0.074l0.117,-0.073l0.116,-0.074l0.115,-0.074l0.114,-0.075l0.112,-0.075l0.112,-0.075l0.111,-0.075l0.11,-0.076l0.109,-0.076l0.108,-0.076l0.107,-0.077l0.106,-0.077l0.105,-0.077l0.104,-0.077l0.104,-0.078l0.102,-0.078l0.101,-0.078l0.1,-0.078l0.1,-0.079l0.098,-0.079l0.097,-0.079l0.097,-0.08l0.096,-0.08l0.094,-0.08l0.094,-0.08l0.093,-0.081l0.092,-0.08l0.09,-0.081l0.09,-0.082l0.09,-0.081l0.088,-0.082l0.087,-0.082l0.086,-0.082l0.086,-0.083l0.084,-0.082l0.084,-0.083l0.083,-0.083l0.082,-0.084l0.081,-0.083l0.08,-0.084l0.079,-0.084l0.078,-0.084l0.077,-0.084l0.077,-0.085l0.076,-0.085l0.074,-0.085l0.074,-0.085l0.073,-0.085l0.073,-0.086l0.071,-0.086l0.07,-0.085l0.07,-0.087l0.069,-0.086l0.068,-0.086l0.067,-0.087l0.066,-0.087l0.065,-0.087l0.065,-0.087l0.063,-0.087l0.063,-0.088l0.062,-0.087l0.061,-0.088l0.061,-0.088l0.059,-0.088l0.059,-0.088l0.058,-0.089l0.057,-0.088l0.056,-0.089l0.056,-0.089l0.054,-0.089l0.054,-0.089l0.053,-0.089l0.053,-0.089l0.051,-0.09l0.051,-0.089l0.05,-0.09l0.049,-0.09l0.048,-0.09l0.048,-0.09l0.046,-0.09l0.046,-0.09l0.046,-0.091l0.044,-0.09l0.044,-0.091l0.043,-0.091l0.042,-0.09l0.041,-0.091l0.041,-0.091l0.04,-0.091l0.039,-0.091l0.038,-0.092l0.038,-0.091l0.037,-0.091l0.036,-0.092l0.035,-0.091l0.035,-0.092l0.034,-0.092l0.033,-0.091l0.032,-0.092l0.032,-0.092l0.031,-0.092l0.031,-0.092l0.029,-0.092l0.029,-0.092l0.028,-0.092l0.028,-0.092l0.027,-0.092l0.026,-0.093l0.025,-0.092l0.025,-0.092l0.024,-0.093l0.023,-0.092l0.023,-0.092l0.022,-0.093l0.021,-0.092l0.021,-0.093l0.02,-0.092l0.019,-0.093l0.018,-0.092l0.018,-0.093l0.018,-0.092l0.016,-0.093l0.016,-0.092l0.015,-0.093l0.015,-0.092l0.014,-0.093l0.013,-0.092l0.013,-0.093l0.012,-0.092l0.011,-0.093l0.011,-0.092l0.01,-0.093l0.01,-0.092l0.009,-0.093l0.008,-0.092l0.008,-0.092l0.007,-0.093l0.006,-0.092l0.006,-0.092l0.005,-0.092l0.005,-0.092l0.004,-0.093l0.003,-0.092l0.003,-0.092l0.002,-0.091l0.001,-0.092l0.001,-0.092l0.001,-0.092l0,-0.092l-0.001,-0.091l-0.002,-0.092l-0.001,-0.091l-0.003,-0.092l-0.003,-0.091l-0.004,-0.091l-0.004,-0.091l-0.005,-0.091l-0.005,-0.091l-0.006,-0.091l-0.006,-0.091l-0.007,-0.091l-0.008,-0.091l-0.008,-0.09l-0.009,-0.09l-0.009,-0.091l-0.01,-0.09l-0.01,-0.09l-0.011,-0.09l-0.011,-0.09l-0.012,-0.09l-0.012,-0.089l-0.013,-0.09l-0.013,-0.089l-0.014,-0.089l-0.015,-0.09l-0.015,-0.089l-0.015,-0.088l-0.016,-0.089l-0.017,-0.089l-0.017,-0.088l-0.017,-0.088l-0.018,-0.089l-0.018,-0.088l-0.019,-0.087l-0.02,-0.088l-0.02,-0.088l-0.02,-0.087l-0.021,-0.087l-0.021,-0.087l-0.022,-0.087l-0.022,-0.087l-0.023,-0.086l-0.023,-0.087l-0.024,-0.086l-0.024,-0.086l-0.024,-0.085l-0.025,-0.086l-0.026,-0.085l-0.026,-0.086l-0.026,-0.085l-0.027,-0.085l-0.027,-0.084l-0.028,-0.085l-0.028,-0.084l-0.028,-0.084l-0.029,-0.084l-0.03,-0.083l-0.029,-0.084l-0.031,-0.083l-0.03,-0.083l-0.031,-0.083l-0.032,-0.082l-0.032,-0.082l-0.032,-0.082l-0.032,-0.082l-0.033,-0.082l-0.034,-0.081l-0.034,-0.081l-0.034,-0.081l-0.035,-0.081l-0.035,-0.08l-0.035,-0.08l-0.036,-0.08l-0.036,-0.08l-0.036,-0.079l-0.037,-0.079l-0.037,-0.079l-0.038,-0.079l-0.038,-0.078l-0.038,-0.078l-0.039,-0.078l-0.039,-0.077l-0.039,-0.077l-0.04,-0.077l-0.04,-0.077l-0.041,-0.076l-0.04,-0.076l-0.041,-0.076l-0.042,-0.076l-0.042,-0.075l-0.042,-0.075l-0.042,-0.074l-0.043,-0.074l-0.043,-0.074l-0.043,-0.074l-0.044,-0.074l-0.044,-0.073l-0.044,-0.072l-0.045,-0.073l-0.045,-0.072l-0.045,-0.072l-0.046,-0.071l-0.045,-0.071l-0.046,-0.071l-0.047,-0.07l-0.047,-0.07l-0.046,-0.07l-0.048,-0.07l-0.047,-0.069l-0.048,-0.068l-0.048,-0.069l-0.048,-0.068l-0.049,-0.068l-0.049,-0.067l-0.049,-0.067l-0.049,-0.066l-0.05,-0.067l-0.05,-0.066l-0.05,-0.065l-0.05,-0.065l-0.051,-0.065l-0.051,-0.064l-0.051,-0.064l-0.051,-0.064l-0.052,-0.063l-0.052,-0.063l-0.052,-0.063l-0.052,-0.062l-0.053,-0.061l-0.052,-0.062l-0.053,-0.06l-0.053,-0.061l-0.054,-0.06l-0.053,-0.06l-0.054,-0.059l-0.054,-0.059l-0.054,-0.058l-0.054,-0.058l-0.055,-0.058l-0.055,-0.057l-0.055,-0.057l-0.055,-0.056l-0.055,-0.056l-0.056,-0.055l-0.055,-0.055l-0.056,-0.055l-0.056,-0.054l-0.056,-0.054l-0.057,-0.053l-0.056,-0.053l-0.057,-0.052l-0.057,-0.052l-0.057,-0.051l-0.057,-0.051l-0.057,-0.051l-0.057,-0.05l-0.058,-0.05l-0.058,-0.049l-0.057,-0.048l-0.058,-0.048l-0.059,-0.048l-0.058,-0.047l-0.058,-0.047l-0.059,-0.046l-0.058,-0.046l-0.059,-0.045l-0.059,-0.045l-0.059,-0.045l-0.059,-0.043l-0.059,-0.044l-0.059,-0.042l-0.06,-0.043l-0.059,-0.041l-0.06,-0.042l-0.059,-0.041l-0.06,-0.04l-0.06,-0.04l-0.06,-0.039l-0.06,-0.038l-0.06,-0.039l-0.06,-0.037l-0.06,-0.037l-0.061,-0.037l-0.06,-0.036l-0.061,-0.035l-0.06,-0.035l-0.061,-0.035l-0.06,-0.034l-0.061,-0.033l-0.061,-0.033l-0.06,-0.032l-0.061,-0.032l-0.061,-0.031l-0.061,-0.03l-0.061,-0.03l-0.061,-0.03l-0.061,-0.029l-0.061,-0.028l-0.061,-0.028l-0.061,-0.027l-0.061,-0.026l-0.061,-0.026l-0.062,-0.026l-0.061,-0.025l-0.061,-0.024l-0.061,-0.024l-0.061,-0.023l-0.062,-0.022l-0.061,-0.022l-0.061,-0.021l-0.061,-0.021l-0.061,-0.02l-0.061,-0.019l-0.061,-0.019l-0.062,-0.018l-0.061,-0.018l-0.061,-0.017l-0.061,-0.016l-0.061,-0.016l-0.061,-0.015l-0.061,-0.015l-0.061,-0.013l-0.06,-0.014l-0.061,-0.012l-0.061,-0.012l-0.061,-0.011l-0.06,-0.011l-0.061,-0.01l0,-0.126l0.775,-0.091l0.778,-0.09l1.562,-0.181l0.783,-0.091l0.784,-0.092l0.392,-0.047l0.392,-0.046l0.392,-0.048l0.393,-0.047l0.392,-0.048l0.392,-0.049l0.392,-0.049l0.391,-0.049l0.392,-0.05l0.391,-0.051l0.391,-0.052l0.39,-0.052l0.39,-0.053l0.39,-0.054l0.389,-0.055l0.388,-0.055l0.388,-0.056l0.387,-0.058l0.387,-0.058l0.193,-0.03l0.192,-0.029l0.193,-0.031l0.192,-0.03l0.192,-0.031l0.192,-0.03l0.192,-0.032l0.191,-0.031l0.191,-0.032l0.191,-0.032l0.191,-0.032l0.19,-0.033l0.19,-0.033l0.19,-0.033l0.19,-0.034l0.189,-0.034l0.189,-0.034l0.189,-0.035l0.188,-0.035l0.189,-0.035l0.187,-0.036l0.188,-0.036l0.187,-0.036l0.187,-0.037l0.186,-0.037l0.187,-0.038l0.185,-0.037l0.186,-0.039l0.185,-0.038l0.185,-0.039l0.184,-0.04l0.184,-0.04l0.184,-0.04l0.183,-0.041l0.183,-0.041l0.182,-0.041l0.182,-0.042l0.182,-0.042l0.181,-0.043l0.181,-0.044l0.18,-0.043l0.18,-0.044l0.18,-0.045l0.179,-0.045l0.178,-0.046l0.178,-0.046l0.178,-0.046l0.177,-0.047l0.177,-0.047l0.176,-0.048l0.176,-0.049l0.175,-0.049l0.175,-0.049l0.174,-0.05l0.174,-0.051l0.173,-0.051l0.173,-0.051l0.172,-0.052l0.171,-0.053l0.171,-0.053l0.171,-0.053l0.17,-0.054l0.169,-0.055l0.169,-0.055l0.168,-0.056l0.168,-0.057l0.167,-0.057l0.167,-0.057l0.165,-0.058l0.166,-0.059l0.164,-0.059l0.165,-0.06l0.163,-0.061l0.163,-0.061l0.162,-0.062l0.162,-0.062l0.161,-0.063l0.16,-0.064l0.159,-0.064l0.159,-0.065l0.159,-0.065l0.157,-0.066l0.157,-0.067l0.156,-0.067l0.156,-0.068l0.155,-0.069l0.154,-0.07l0.154,-0.07l0.152,-0.07l0.152,-0.072l0.152,-0.072l0.15,-0.073l0.15,-0.073l0.149,-0.074l0.148,-0.075l0.148,-0.076l0.147,-0.076l0.146,-0.077l0.145,-0.078l0.145,-0.079l0.143,-0.079l0.143,-0.08l0.142,-0.08l0.142,-0.082l0.14,-0.082l0.14,-0.083l0.139,-0.084l0.138,-0.084l0.137,-0.086l0.136,-0.086l0.136,-0.086l0.067,-0.044l0.067,-0.044l0.067,-0.044l0.067,-0.044l0.067,-0.045l0.066,-0.045l0.066,-0.045l0.066,-0.045l0.066,-0.045l0.065,-0.045l0.066,-0.046l0.065,-0.046l0.065,-0.046l0.064,-0.046l0.064,-0.047l0.065,-0.047l0.064,-0.047l0.063,-0.047l0.064,-0.047l0.063,-0.048l0.063,-0.047l0.063,-0.048l0.062,-0.048l0.063,-0.049l0.062,-0.048l0.062,-0.049l0.061,-0.049l0.062,-0.05l0.061,-0.049l0.061,-0.05l0.061,-0.049l0.06,-0.051l0.06,-0.05l0.06,-0.05l0.06,-0.051l0.06,-0.051l0.059,-0.051l0.059,-0.052l0.059,-0.051l0.058,-0.052l0.059,-0.052l0.058,-0.052l0.058,-0.053l0.057,-0.053l0.057,-0.053l0.058,-0.053l0.056,-0.053l0.057,-0.054l0.056,-0.053l0.056,-0.055l0.056,-0.054l0.056,-0.054l0.055,-0.055l0.055,-0.055l0.055,-0.055l0.055,-0.056l0.054,-0.055l0.054,-0.056l0.054,-0.056l0.054,-0.057l0.053,-0.056l0.053,-0.057l0.053,-0.057l0.052,-0.057l0.053,-0.058l0.052,-0.058l0.051,-0.058l0.052,-0.058l0.051,-0.058l0.051,-0.059l0.051,-0.059l0.05,-0.059l0.05,-0.059l0.05,-0.06l0.05,-0.06l0.049,-0.06l0.049,-0.06l0.049,-0.061l0.049,-0.061l0.048,-0.061l0.048,-0.061l0.048,-0.062l0.047,-0.062l0.047,-0.062l0.047,-0.062l0.047,-0.063l0.046,-0.063l0.046,-0.063l0.046,-0.063l0.046,-0.064l0.045,-0.063l0.045,-0.064l0.045,-0.065l0.044,-0.064l0.044,-0.065l0.044,-0.065l0.043,-0.066l0.044,-0.065l0.043,-0.066l0.042,-0.066l0.043,-0.066l0.042,-0.067l0.042,-0.067l0.041,-0.067l0.042,-0.067l0.041,-0.068l0.04,-0.068l0.041,-0.068l0.04,-0.068l0.04,-0.069l0.039,-0.069l0.039,-0.069l0.039,-0.07l0.039,-0.069l0.038,-0.07l0.038,-0.071l0.038,-0.07l0.037,-0.071l0.037,-0.071l0.037,-0.071l0.037,-0.072l0.036,-0.072l0.036,-0.072l0.035,-0.072l0.036,-0.073l0.035,-0.073l0.034,-0.073l0.035,-0.074l0.034,-0.074l0.034,-0.074l0.033,-0.074l0.033,-0.074l0.033,-0.075l0.033,-0.075l0.032,-0.076l0.032,-0.076l0.031,-0.075l0.032,-0.077l0.03,-0.076l0.031,-0.077l0.03,-0.077l0.03,-0.077l0.03,-0.078l0.03,-0.078l0.029,-0.078l0.028,-0.079l0.029,-0.078l0.028,-0.08l0.028,-0.079l0.027,-0.079l0.027,-0.08l0.027,-0.081l0.026,-0.08l0.026,-0.081l0.026,-0.081l0.026,-0.081l0.025,-0.082l0.025,-0.082l0.024,-0.082l0.024,-0.083l0.024,-0.082l0.024,-0.083l0.023,-0.084l0.023,-0.083l0.022,-0.084l0.022,-0.085l0.055,-0.255l0.054,-0.256l0.053,-0.257l0.053,-0.258l0.053,-0.259l0.052,-0.26l0.052,-0.26l0.051,-0.261l-0.021,0.134Zm-3.413,9.664l-0.055,0.061l-0.055,0.061l-0.056,0.061l-0.056,0.06l-0.056,0.06l-0.056,0.06l-0.057,0.059l-0.057,0.06l-0.057,0.059l-0.057,0.059l-0.058,0.058l-0.058,0.058l-0.058,0.058l-0.059,0.058l-0.058,0.058l-0.059,0.057l-0.059,0.057l-0.06,0.057l-0.06,0.056l-0.059,0.057l-0.061,0.056l-0.06,0.056l-0.061,0.055l-0.061,0.055l-0.061,0.056l-0.061,0.054l-0.062,0.055l-0.062,0.054l-0.062,0.054l-0.063,0.054l-0.062,0.054l-0.063,0.053l-0.063,0.053l-0.063,0.053l-0.064,0.053l-0.064,0.052l-0.064,0.053l-0.064,0.051l-0.065,0.052l-0.064,0.052l-0.065,0.051l-0.066,0.051l-0.065,0.051l-0.066,0.05l-0.065,0.051l-0.067,0.05l-0.066,0.049l-0.066,0.05l-0.067,0.049l-0.067,0.05l-0.067,0.049l-0.068,0.048l-0.067,0.049l-0.068,0.048l-0.068,0.048l-0.069,0.048l-0.068,0.047l-0.069,0.048l-0.069,0.047l-0.069,0.047l-0.069,0.046l-0.07,0.047l-0.069,0.046l-0.07,0.046l-0.071,0.046l-0.071,0.046l-0.14,0.09l-0.142,0.09l-0.143,0.089l-0.144,0.088l-0.145,0.087l-0.145,0.086l-0.146,0.086l-0.147,0.084l-0.148,0.084l-0.148,0.083l-0.149,0.083l-0.15,0.081l-0.151,0.081l-0.151,0.08l-0.152,0.079l-0.153,0.078l-0.154,0.077l-0.154,0.077l-0.155,0.076l-0.156,0.076l-0.156,0.074l-0.157,0.074l-0.158,0.073l-0.158,0.072l-0.159,0.072l-0.16,0.071l-0.16,0.07l-0.161,0.069l-0.162,0.069l-0.162,0.068l-0.163,0.067l-0.163,0.067l-0.164,0.066l-0.165,0.065l-0.165,0.065l-0.166,0.064l-0.167,0.063l-0.167,0.063l-0.167,0.062l-0.169,0.062l-0.168,0.06l-0.17,0.061l-0.17,0.059l-0.17,0.059l-0.171,0.058l-0.172,0.058l-0.172,0.057l-0.172,0.057l-0.174,0.056l-0.173,0.055l-0.174,0.055l-0.175,0.054l-0.175,0.054l-0.176,0.053l-0.176,0.052l-0.177,0.052l-0.177,0.052l-0.177,0.051l-0.178,0.05l-0.179,0.05l-0.179,0.049l-0.179,0.049l-0.18,0.048l-0.18,0.048l-0.181,0.047l-0.181,0.047l-0.182,0.046l-0.182,0.046l-0.182,0.045l-0.183,0.045l-0.183,0.045l-0.184,0.044l-0.184,0.043l-0.184,0.043l-0.185,0.043l-0.185,0.042l-0.185,0.041l-0.186,0.042l-0.186,0.04l-0.186,0.041l-0.187,0.04l-0.187,0.039l-0.188,0.039l-0.188,0.039l-0.188,0.039l-0.188,0.038l-0.189,0.037l-0.189,0.037l-0.189,0.037l-0.19,0.037l-0.19,0.036l-0.19,0.035l-0.191,0.036l-0.19,0.035l-0.191,0.034l-0.191,0.035l-0.192,0.034l-0.192,0.033l-0.192,0.033l-0.192,0.033l-0.192,0.033l-0.193,0.032l-0.193,0.033l-0.193,0.031l-0.193,0.032l-0.194,0.031l-0.193,0.031l-0.194,0.03l-0.194,0.031l-0.194,0.03l-0.195,0.03l-0.389,0.058l-0.39,0.058l-0.39,0.057l-0.391,0.056l-0.391,0.055l-0.392,0.054l-0.392,0.053l-0.392,0.052l-0.393,0.052l-0.393,0.051l-0.393,0.051l-0.393,0.049l-0.394,0.05l-0.393,0.048l-0.394,0.049l-0.393,0.047l-0.393,0.048l-0.393,0.046l-0.393,0.047l-0.785,0.092l-0.348,0.041l0.053,0.035l0.065,0.044l0.065,0.044l0.065,0.045l0.065,0.046l0.064,0.046l0.065,0.046l0.064,0.048l0.064,0.047l0.064,0.048l0.064,0.049l0.064,0.049l0.063,0.049l0.064,0.05l0.063,0.051l0.063,0.051l0.062,0.051l0.063,0.052l0.062,0.053l0.063,0.053l0.062,0.053l0.061,0.054l0.062,0.055l0.061,0.054l0.062,0.056l0.061,0.055l0.061,0.057l0.06,0.056l0.061,0.057l0.06,0.058l0.06,0.058l0.06,0.059l0.059,0.058l0.06,0.06l0.059,0.06l0.059,0.06l0.059,0.06l0.058,0.062l0.058,0.061l0.058,0.062l0.058,0.062l0.058,0.063l0.057,0.063l0.057,0.064l0.057,0.064l0.057,0.064l0.056,0.065l0.056,0.066l0.056,0.065l0.056,0.066l0.055,0.067l0.055,0.067l0.055,0.067l0.055,0.068l0.054,0.068l0.054,0.068l0.054,0.069l0.053,0.069l0.054,0.07l0.053,0.07l0.052,0.07l0.053,0.071l0.052,0.071l0.052,0.071l0.051,0.072l0.052,0.072l0.051,0.073l0.05,0.073l0.051,0.073l0.05,0.073l0.049,0.074l0.05,0.075l0.049,0.074l0.049,0.075l0.048,0.076l0.049,0.075l0.048,0.076l0.047,0.077l0.047,0.076l0.047,0.077l0.047,0.078l0.046,0.077l0.046,0.078l0.046,0.079l0.045,0.078l0.045,0.079l0.044,0.08l0.045,0.079l0.043,0.08l0.044,0.08l0.043,0.081l0.043,0.081l0.042,0.081l0.042,0.081l0.042,0.082l0.041,0.082l0.041,0.082l0.041,0.083l0.04,0.082l0.04,0.084l0.039,0.083l0.039,0.084l0.039,0.084l0.038,0.084l0.038,0.085l0.037,0.084l0.037,0.085l0.037,0.086l0.036,0.085l0.036,0.086l0.035,0.086l0.035,0.087l0.035,0.086l0.034,0.087l0.034,0.087l0.033,0.088l0.033,0.087l0.032,0.088l0.032,0.088l0.032,0.089l0.031,0.088l0.031,0.089l0.03,0.089l0.03,0.09l0.029,0.089l0.029,0.09l0.028,0.09l0.028,0.09l0.028,0.09l0.027,0.091l0.026,0.091l0.026,0.091l0.026,0.091l0.025,0.092l0.025,0.091l0.024,0.092l0.023,0.092l0.024,0.092l0.022,0.093l0.022,0.092l0.022,0.093l0.021,0.093l0.021,0.093l0.02,0.094l0.019,0.093l0.019,0.094l0.019,0.094l0.018,0.094l0.018,0.094l0.017,0.094l0.016,0.095l0.016,0.095l0.015,0.095l0.015,0.095l0.014,0.095l0.014,0.095l0.013,0.096l0.013,0.095l0.012,0.096l0.011,0.096l0.011,0.096l0.011,0.096l0.009,0.096l0.01,0.097l0.008,0.096l0.008,0.097l0.008,0.097l0.007,0.097l0.006,0.097l0.006,0.097l0.005,0.097l0.004,0.098l0.004,0.097l0.004,0.098l0.002,0.097l0.002,0.098l0.002,0.098l0.001,0.098l0,0.098l-0.001,0.098l-0.001,0.099l-0.001,0.098l-0.003,0.098l-0.003,0.099l-0.003,0.098l-0.004,0.099l-0.005,0.098l-0.006,0.099l-0.006,0.099l-0.007,0.099l-0.007,0.099l-0.009,0.099l-0.008,0.099l-0.01,0.099l-0.01,0.099l-0.011,0.099l-0.012,0.099l-0.012,0.099l-0.013,0.099l-0.013,0.1l-0.015,0.099l-0.015,0.099l-0.015,0.1l-0.017,0.099l-0.017,0.099l-0.018,0.1l-0.018,0.099l-0.019,0.099l-0.02,0.1l-0.021,0.099l-0.021,0.099l-0.023,0.1l-0.022,0.099l-0.024,0.099l-0.024,0.099l-0.025,0.1l-0.026,0.099l-0.027,0.099l-0.027,0.099l-0.028,0.099l-0.029,0.099l-0.029,0.099l-0.031,0.099l-0.031,0.099l-0.032,0.099l-0.032,0.099l-0.034,0.099l-0.034,0.098l-0.035,0.099l-0.035,0.098l-0.037,0.099l-0.037,0.098l-0.038,0.098l-0.039,0.099l-0.039,0.098l-0.041,0.098l-0.041,0.098l-0.042,0.098l-0.043,0.097l-0.043,0.098l-0.045,0.097l-0.045,0.098l-0.046,0.097l-0.047,0.097l-0.047,0.097l-0.049,0.097l-0.049,0.097l-0.05,0.097l-0.051,0.096l-0.052,0.096l-0.053,0.097l-0.053,0.096l-0.054,0.096l-0.055,0.095l-0.056,0.096l-0.057,0.095l-0.058,0.096l-0.058,0.095l-0.059,0.095l-0.061,0.095l-0.061,0.094l-0.061,0.095l-0.063,0.094l-0.064,0.094l-0.064,0.094l-0.065,0.093l-0.067,0.094l-0.067,0.093l-0.067,0.093l-0.069,0.093l-0.07,0.093l-0.07,0.092l-0.072,0.092l-0.072,0.093l-0.073,0.091l-0.074,0.092l-0.075,0.091l-0.076,0.091l-0.077,0.091l-0.077,0.091l-0.079,0.09l-0.079,0.09l-0.08,0.09l-0.081,0.09l-0.082,0.09l-0.083,0.089l-0.084,0.089l-0.085,0.088l-0.086,0.089l-0.086,0.088l-0.088,0.088l-0.088,0.087l-0.089,0.088l-0.091,0.087l-0.091,0.087l-0.092,0.086l-0.093,0.086l-0.094,0.086l-0.095,0.086l-0.096,0.085l-0.096,0.085l-0.098,0.085l-0.099,0.085l-0.099,0.084l-0.101,0.084l-0.101,0.083l-0.102,0.084l-0.104,0.083l-0.104,0.082l-0.105,0.083l-0.106,0.082l-0.107,0.081l-0.109,0.082l-0.109,0.081l-0.11,0.08l-0.111,0.081l-0.112,0.08l-0.112,0.08l-0.114,0.079l-0.115,0.079l-0.116,0.079l-0.117,0.078l-0.118,0.078l-0.118,0.078l-0.12,0.077l-0.121,0.077l-0.121,0.077l-0.123,0.076l-0.124,0.076l-0.125,0.076l-0.125,0.075l-0.127,0.075l-0.128,0.074l-0.128,0.074l-0.13,0.074l-0.131,0.074l-0.132,0.072l-0.132,0.073l-0.134,0.072l-0.135,0.072l-0.044,0.023l0.012,-0.003l0.141,-0.046l0.141,-0.045l0.14,-0.047l0.141,-0.046l0.141,-0.047l0.141,-0.048l0.141,-0.048l0.141,-0.048l0.141,-0.049l0.141,-0.049l0.141,-0.049l0.141,-0.05l0.14,-0.051l0.141,-0.051l0.141,-0.051l0.141,-0.052l0.141,-0.052l0.14,-0.053l0.141,-0.053l0.141,-0.053l0.14,-0.054l0.141,-0.055l0.141,-0.055l0.14,-0.055l0.141,-0.056l0.14,-0.056l0.141,-0.057l0.14,-0.057l0.14,-0.058l0.141,-0.058l0.14,-0.059l0.14,-0.059l0.14,-0.06l0.141,-0.06l0.14,-0.06l0.14,-0.061l0.14,-0.062l0.14,-0.062l0.14,-0.062l0.139,-0.063l0.14,-0.063l0.14,-0.064l0.139,-0.065l0.14,-0.065l0.14,-0.065l0.139,-0.066l0.139,-0.066l0.14,-0.067l0.139,-0.068l0.139,-0.067l0.139,-0.069l0.139,-0.069l0.139,-0.069l0.139,-0.07l0.139,-0.071l0.138,-0.071l0.139,-0.071l0.139,-0.072l0.138,-0.073l0.138,-0.073l0.139,-0.073l0.138,-0.074l0.138,-0.075l0.138,-0.075l0.138,-0.076l0.137,-0.076l0.138,-0.077l0.138,-0.077l0.137,-0.078l0.138,-0.078l0.137,-0.079l0.137,-0.08l0.137,-0.08l0.137,-0.08l0.137,-0.081l0.136,-0.082l0.137,-0.082l0.137,-0.083l0.136,-0.083l0.136,-0.084l0.136,-0.085l0.136,-0.085l0.136,-0.085l0.136,-0.087l0.136,-0.086l0.135,-0.088l0.135,-0.087l0.136,-0.089l0.135,-0.089l0.135,-0.09l0.135,-0.09l0.134,-0.091l0.135,-0.091l0.134,-0.092l0.135,-0.092l0.134,-0.094l0.134,-0.093l0.134,-0.095l0.133,-0.094l0.134,-0.096l0.133,-0.096l0.134,-0.097l0.133,-0.097l0.133,-0.098l0.132,-0.099l0.133,-0.099l0.132,-0.1l0.133,-0.1l0.132,-0.101l0.132,-0.102l0.132,-0.102l0.131,-0.103l0.132,-0.103l0.131,-0.104l0.131,-0.105l0.131,-0.105l0.131,-0.106l0.131,-0.107l0.13,-0.107l0.13,-0.108l0.13,-0.109l0.13,-0.109l0.13,-0.11l0.129,-0.11l0.13,-0.111l0.129,-0.112l0.129,-0.112l0.129,-0.113l0.128,-0.114l0.129,-0.115l0.128,-0.115l0.128,-0.115l0.127,-0.117l0.128,-0.117l0.127,-0.117l0.128,-0.119l0.127,-0.119l0.126,-0.12l0.127,-0.12l0.126,-0.121l0.126,-0.122l0.126,-0.122l0.126,-0.123l0.125,-0.124l0.126,-0.125l0.125,-0.125l0.125,-0.126l0.124,-0.126l0.125,-0.128l0.124,-0.128l0.124,-0.128l0.123,-0.13l0.124,-0.13l0.123,-0.13l0.123,-0.132l0.123,-0.132l0.122,-0.133l0.123,-0.134l0.122,-0.134l0.122,-0.135l0.121,-0.136l0.122,-0.136l0.121,-0.137l0.121,-0.138l0.12,-0.139l0.12,-0.139l0.121,-0.14l0.119,-0.141l0.12,-0.142l0.119,-0.142l0.119,-0.143l0.119,-0.144l0.119,-0.145l0.118,-0.145l0.118,-0.146l0.118,-0.147l0.117,-0.147l0.118,-0.149l0.117,-0.149l0.116,-0.15l0.117,-0.15l0.116,-0.151l0.116,-0.153l0.115,-0.152l0.116,-0.154l0.115,-0.155l0.114,-0.155l0.115,-0.156l0.114,-0.156l0.114,-0.158l0.113,-0.158l0.114,-0.159l0.113,-0.16l0.112,-0.161l0.113,-0.161l0.112,-0.162l0.112,-0.163l0.111,-0.164l0.111,-0.165l0.111,-0.165l0.111,-0.166l0.11,-0.167l0.11,-0.168l0.11,-0.169l0.109,-0.169l0.109,-0.171l0.109,-0.171l0.108,-0.172l0.109,-0.172l0.107,-0.174l0.108,-0.174l0.107,-0.175l0.107,-0.176l0.106,-0.177l0.106,-0.178l0.106,-0.178l0.106,-0.179l0.105,-0.18l0.105,-0.181l0.104,-0.182l0.104,-0.183l0.104,-0.183l0.104,-0.185l0.103,-0.185l0.103,-0.186l0.102,-0.187l0.102,-0.188l0.102,-0.188l0.101,-0.19l0.101,-0.19l0.101,-0.191l0.1,-0.192l0.1,-0.193l0.1,-0.194l0.099,-0.194l0.099,-0.196l0.098,-0.196l0.098,-0.198l0.098,-0.198l0.098,-0.199l0.097,-0.2l0.096,-0.2l0.097,-0.202l0.096,-0.203l0.095,-0.203l0.095,-0.204l0.095,-0.206l0.094,-0.206l0.094,-0.207l0.094,-0.208l0.093,-0.208l0.093,-0.21l0.092,-0.211l0.092,-0.211l0.092,-0.213l0.091,-0.213l0.091,-0.214l0.091,-0.216l0.09,-0.216l0.089,-0.217l0.09,-0.218l0.088,-0.219l0.089,-0.219l0.088,-0.221l0.087,-0.222l0.088,-0.222l0.086,-0.224l0.087,-0.224l0.086,-0.226l0.085,-0.226l0.085,-0.227l0.085,-0.228l0.084,-0.23l0.084,-0.23l0.083,-0.231l0.083,-0.232l0.083,-0.233l0.082,-0.234l0.082,-0.234l0.081,-0.236l0.081,-0.237l0.08,-0.238l0.08,-0.238l0.079,-0.24l0.079,-0.241l0.079,-0.241l0.078,-0.243l0.078,-0.244l0.077,-0.244l0.077,-0.246l0.076,-0.246l0.076,-0.248l0.075,-0.248l0.075,-0.249l0.009,-0.033l-0.019,0.022Z" style="fill:#fff;"/></g><defs><linearGradient id="_Linear1" x1="0" y1="0" x2="1" y2="0" gradientUnits="userSpaceOnUse" gradientTransform="matrix(2e-06,0,0,2e-06,54.1902,57.0013)"><stop offset="0" style="stop-color:#fff;stop-opacity:0"/><stop offset="1" style="stop-color:#b3b3b3;stop-opacity:0"/></linearGradient></defs></svg>