<?xml version="1.0" encoding="UTF-8" standalone="no"?><!DOCTYPE svg PUBLIC "-//W3C//DTD SVG 1.1//EN" "http://www.w3.org/Graphics/SVG/1.1/DTD/svg11.dtd"><svg width="100%" height="100%" viewBox="0 0 83 83" version="1.1" xmlns="http://www.w3.org/2000/svg" xmlns:xlink="http://www.w3.org/1999/xlink" xml:space="preserve" xmlns:serif="http://www.serif.com/" style="fill-rule:evenodd;clip-rule:evenodd;stroke-linecap:round;stroke-linejoin:round;stroke-miterlimit:1.5;"><path d="M69.375,40.833c0,8.613 -2.724,16.084 -8.172,22.412c-4.813,5.654 -11.572,8.628 -20.277,8.921c-1.672,0.058 -6.269,0.087 -13.793,0.087c-1.412,0 -3.538,-0.044 -6.377,-0.131c-2.839,-0.088 -4.965,-0.132 -6.377,-0.132c-0.836,0 -1.254,-0.337 -1.254,-1.011c0,-3.223 0.123,-8.064 0.368,-14.524c0.245,-6.46 0.367,-11.301 0.367,-14.524c0,-3.369 -0.122,-8.415 -0.367,-15.139c-0.245,-6.724 -0.368,-11.755 -0.368,-15.095c0,-0.615 0.418,-0.982 1.254,-1.099c2.046,-0.234 5.404,-0.351 10.074,-0.351c8.878,0 14.628,0.131 17.251,0.395c6.831,0.703 12.178,2.461 16.041,5.274c3.631,2.636 6.499,6.328 8.603,11.074c2.018,4.482 3.027,9.096 3.027,13.843Zm-16.559,0c0,-4.952 -1.456,-8.995 -4.367,-12.129c-2.94,-3.252 -6.831,-4.878 -11.674,-4.878c-4.439,0 -6.658,0.6 -6.658,1.801c0,1.729 -0.029,4.329 -0.087,7.801c-0.057,3.471 -0.086,6.072 -0.086,7.8c0,1.699 0.029,4.255 0.086,7.668c0.058,3.414 0.087,5.984 0.087,7.713c0,1.26 2.306,1.89 6.917,1.89c4.987,0 8.907,-1.685 11.761,-5.054c2.68,-3.194 4.021,-7.398 4.021,-12.612Z" style="fill-rule:nonzero;"/><path d="M82.077,31.299c0.146,-0.68 0.287,-1.369 0.423,-2.067c-0.109,0.717 -0.25,1.406 -0.423,2.067c-10.327,48.283 -43.511,51.199 -62.662,51.142l0,0c-1.875,0.06 -3.846,0.075 -5.915,0.041l5.915,-0.041c47.161,-1.509 34.301,-31.514 23.961,-33.166l0,-0.127c16.515,-1.939 34.947,-3.442 38.701,-17.849Z" style="fill:#fff;stroke:#000;stroke-width:1px;"/><rect x="0" y="0" width="82.5" height="82.5" style="fill:url(#_Linear1);stroke:#000;stroke-width:1px;"/><defs><linearGradient id="_Linear1" x1="0" y1="0" x2="1" y2="0" gradientUnits="userSpaceOnUse" gradientTransform="matrix(2e-06,0,0,2e-06,54.1902,57.0013)"><stop offset="0" style="stop-color:#fff;stop-opacity:0"/><stop offset="1" style="stop-color:#b3b3b3;stop-opacity:0"/></linearGradient></defs></svg>